<?xml version="1.0" encoding="UTF-8"?>
<!DOCTYPE svg PUBLIC "-//W3C//DTD SVG 1.1//EN" "http://www.w3.org/Graphics/SVG/1.1/DTD/svg11.dtd">
<!-- Creator: CorelDRAW X5 -->
<svg xmlns="http://www.w3.org/2000/svg" xml:space="preserve" width="310px" height="70px" style="shape-rendering:geometricPrecision; text-rendering:geometricPrecision; image-rendering:optimizeQuality; fill-rule:evenodd; clip-rule:evenodd"
viewBox="0 0 291479 65825"
 xmlns:xlink="http://www.w3.org/1999/xlink">
 <defs>
  <style type="text/css">
   <![CDATA[
    .fil0 {fill:#145B9F;fill-rule:nonzero}
    .fil1 {fill:#B59A4C;fill-rule:nonzero}
    .fil3 {fill:#ED3237;fill-rule:nonzero}
    .fil2 {fill:#FEFEFE;fill-rule:nonzero}
   ]]>
  </style>
 </defs>
 <g id="__x0023_Layer_x0020_1">
  <metadata id="CorelCorpID_0Corel-Layer"/>
  <g id="_255158472">
   <g>
    <g>
     <g>
      <g>
       <g>
        <path class="fil0" d="M0 65690l0 -146c209,-23 373,-61 446,-101 73,-74 141,-207 141,-388l0 -2871c-109,-130 -214,-236 -305,-321 -123,-81 -182,-108 -255,-108l0 -153 1412 0 2333 2574 23 -1820c0,-211 -50,-350 -128,-436 -73,-117 -246,-166 -515,-166l0 -153 1458 0 0 153c-228,18 -369,70 -437,137 -55,74 -91,175 -91,344l0 3565 -178 0 -3007 -3282 -4 2428c0,216 23,366 128,436 91,85 250,139 519,162l0 146 -1540 0z"/>
       </g>
       <g>
        <path class="fil0" d="M9641 63942l0 164c-219,27 -374,47 -428,97 -105,76 -150,224 -150,467l0 759c-168,108 -424,191 -793,267 -365,85 -711,124 -1011,124 -802,0 -1408,-220 -1845,-660 -392,-398 -606,-881 -606,-1474 0,-613 214,-1125 656,-1543 446,-427 1034,-642 1722,-642 205,0 424,38 638,92 214,72 428,148 660,207 87,0 159,-27 210,-83 23,-25 46,-94 87,-191l219 0 0 1420 -201 0c-118,-328 -328,-591 -574,-809 -287,-290 -624,-427 -966,-427 -469,0 -802,200 -1002,584 -178,319 -260,786 -260,1384 0,624 105,1096 342,1429 209,330 537,514 961,514 301,0 492,-47 592,-117 73,-74 123,-189 123,-341l0 -636c0,-177 -50,-292 -146,-339 -77,-54 -269,-81 -551,-81l0 -164 2324 0z"/>
       </g>
       <g>
        <path class="fil0" d="M14448 61602l0 151c-187,16 -346,65 -405,128 -77,85 -123,198 -123,386l0 1932c0,211 -19,420 -87,615 -50,240 -164,429 -301,562 -146,144 -369,258 -647,337 -209,67 -442,112 -665,112 -232,0 -433,-27 -629,-67 -310,-61 -547,-169 -733,-323 -164,-137 -278,-272 -337,-389 -105,-169 -137,-418 -137,-712l0 -2026c0,-229 -41,-380 -132,-460 -55,-47 -191,-79 -410,-95l0 -151 2255 0 0 151c-228,0 -415,16 -478,78 -91,67 -137,223 -137,477l0 2026c0,407 50,717 210,910 177,173 405,276 729,276 519,0 875,-180 1048,-519 100,-198 155,-467 155,-802l0 -1844c0,-216 -32,-362 -109,-445 -91,-110 -278,-157 -542,-157l0 -151 1476 0z"/>
       </g>
       <g>
        <path class="fil0" d="M19090 61602l0 151c-105,9 -182,29 -219,47 -87,31 -164,99 -237,177l-1271 1889 0 1114c0,236 45,395 114,456 46,54 237,83 497,101l0 159 -2323 0 0 -153c242,-25 406,-54 474,-101 109,-67 141,-227 141,-463l0 -885 -1226 -2004c-41,-92 -114,-155 -155,-189 -114,-103 -255,-151 -383,-151l0 -151 2241 0 0 151c-223,0 -378,9 -446,29 -59,36 -86,81 -86,184 0,34 27,108 68,202 36,45 68,77 87,126l815 1395 743 -1110c59,-97 123,-207 177,-321 41,-106 91,-191 91,-247 0,-79 -50,-148 -105,-180 -73,-31 -228,-63 -469,-78l0 -151 1472 0z"/>
       </g>
       <g>
        <path class="fil0" d="M19177 61752l0 -151 3877 0 0 1218 -155 0c-100,-413 -255,-683 -487,-827 -228,-126 -579,-184 -1057,-184 -214,0 -328,22 -410,49 -68,23 -91,108 -91,220l0 1399 46 29c333,0 560,-67 725,-189 169,-137 264,-382 319,-723l173 0 0 2049 -173 0c-55,-364 -150,-629 -319,-759 -164,-117 -428,-187 -770,-187l0 1465c0,135 23,206 123,267 82,54 219,74 442,74 415,0 715,-67 980,-191 337,-159 606,-458 788,-885l196 0 -287 1263 -3918 0 0 -146c187,-25 305,-34 355,-41 141,-56 246,-189 246,-386l0 -2934c0,-173 -78,-303 -201,-353 -59,-49 -205,-67 -401,-78z"/>
       </g>
       <g>
        <path class="fil0" d="M23701 65690l0 -146c219,-23 365,-61 428,-101 91,-74 164,-207 164,-388l0 -2871c-100,-130 -228,-236 -328,-321 -100,-81 -169,-108 -246,-108l0 -153 1422 0 2319 2574 28 -1820c0,-211 -41,-350 -114,-436 -109,-117 -264,-166 -519,-166l0 -153 1440 0 0 153c-228,18 -374,70 -419,137 -55,74 -87,175 -87,344l0 3565 -201 0 -2984 -3282 -27 2428c0,216 55,366 142,436 86,85 255,139 510,162l0 146 -1526 0z"/>
       </g>
       <g>
        <path class="fil0" d="M33214 65537l0 153 -2387 0 0 -153c264,0 414,-32 515,-83 91,-72 128,-227 128,-478l0 -3181c-328,0 -592,49 -775,141 -305,162 -469,452 -524,881l-196 0 23 -1215 4019 0 18 1215 -201 0c-41,-429 -219,-719 -501,-881 -191,-92 -447,-141 -770,-141l0 3181c0,252 41,407 146,478 46,52 246,83 506,83z"/>
       </g>
       <g>
        <path class="fil0" d="M38709 65544l0 153 -2178 0 0 -153c205,0 346,-7 428,-41 68,-29 109,-90 109,-189 0,-72 -41,-205 -109,-398 -46,-74 -91,-211 -210,-422l-1513 0c-82,202 -159,382 -200,515 -50,150 -91,245 -91,281 0,79 46,146 119,200 87,32 228,54 414,54l0 153 -1349 0 0 -159c169,-18 301,-83 401,-198 68,-72 146,-238 250,-501l1494 -3338 196 0 1504 3196c159,344 264,564 337,656 114,137 223,191 364,191l32 0zm-3353 -1274l0 0 1299 0 -674 -1489 -624 1489z"/>
       </g>
       <g>
        <path class="fil0" d="M42268 65537l0 153 -2392 0 0 -153c264,0 424,-32 515,-83 77,-72 141,-227 141,-478l0 -3181c-337,0 -597,49 -770,141 -296,162 -478,452 -542,881l-182 0 23 -1215 4032 0 0 1215 -187 0c-59,-429 -219,-719 -510,-881 -178,-92 -438,-141 -775,-141l0 3181c0,252 23,407 146,478 73,52 242,83 501,83z"/>
       </g>
       <g>
        <path class="fil0" d="M48095 65537l0 153 -2401 0 0 -153c269,0 433,-32 501,-83 100,-72 146,-227 146,-478l0 -3181c-328,0 -588,49 -775,141 -301,162 -469,452 -524,881l-187 0 13 -1215 4019 0 23 1215 -191 0c-64,-429 -242,-719 -515,-881 -200,-92 -456,-141 -774,-141l0 3181c0,252 54,407 146,478 73,52 255,83 519,83z"/>
       </g>
       <g>
        <path class="fil0" d="M54046 65544l0 146 -2283 0 0 -153c232,-16 360,-47 437,-83 109,-67 178,-164 178,-337l0 -1397 -1636 0 0 1397c0,157 46,270 173,330 59,43 219,74 428,90l0 153 -2242 0 0 -146c196,-23 337,-45 396,-97 105,-61 150,-173 150,-330l0 -2934c0,-177 -59,-292 -182,-353 -41,-38 -177,-69 -364,-76l0 -153 2242 0 0 153c-205,7 -342,27 -405,63 -123,74 -196,189 -196,366l0 1247 1636 0 0 -1247c0,-177 -68,-292 -187,-353 -77,-38 -223,-69 -428,-76l0 -153 2283 0 0 153c-187,7 -337,27 -410,63 -109,74 -168,189 -168,366l0 2934c0,173 36,270 155,330 59,43 200,74 424,97z"/>
       </g>
       <g>
        <path class="fil0" d="M58661 65544l0 153 -2164 0 0 -153c214,0 337,-7 414,-41 82,-29 114,-90 114,-189 0,-72 -32,-205 -114,-398 -32,-74 -100,-211 -200,-422l-1513 0c-82,202 -160,382 -214,515 -50,150 -82,245 -82,281 0,79 41,146 128,200 86,32 219,54 419,54l0 153 -1358 0 0 -159c168,-18 301,-83 383,-198 82,-72 169,-238 278,-501l1494 -3338 182 0 1499 3196c178,344 287,564 360,656 82,137 214,191 351,191l23 0zm-3344 -1274l0 0 1294 0 -674 -1489 -620 1489z"/>
       </g>
       <g>
        <path class="fil0" d="M58884 65690l0 -146c223,-23 383,-61 437,-101 118,-74 155,-207 155,-388l0 -2871c-114,-130 -210,-236 -314,-321 -101,-81 -178,-108 -246,-108l0 -153 1408 0 2342 2574 14 -1820c0,-211 -50,-350 -114,-436 -91,-117 -255,-166 -542,-166l0 -153 1476 0 0 153c-242,18 -392,70 -447,137 -55,74 -77,175 -77,344l0 3565 -187 0 -3007 -3282 -9 2428c0,216 41,366 128,436 91,85 250,139 515,162l0 146 -1531 0z"/>
       </g>
       <g>
        <path class="fil0" d="M68571 65544l0 146 -2324 0 0 -153c241,-16 392,-47 447,-83 128,-67 191,-164 191,-337l0 -1397 -1649 0 0 1397c0,157 82,270 182,330 68,43 201,74 424,90l0 153 -2246 0 0 -146c209,-23 360,-45 410,-97 105,-61 155,-173 155,-330l0 -2934c0,-177 -50,-292 -178,-353 -68,-38 -205,-69 -387,-76l0 -153 2246 0 0 153c-201,7 -337,27 -406,63 -105,74 -200,189 -200,366l0 1247 1649 0 0 -1247c0,-177 -86,-292 -191,-353 -82,-38 -232,-69 -447,-76l0 -153 2324 0 0 153c-241,7 -374,27 -405,63 -150,74 -214,189 -214,366l0 2934c0,173 59,270 164,330 64,43 200,74 456,97z"/>
       </g>
      </g>
      <g>
       <g>
        <g>
         <g>
          <g>
           <path class="fil1" d="M62208 53309c-2141,-625 -3568,-1797 -3917,-2103 -190,460 -485,1123 -870,1873 -535,1154 -2270,1304 -3167,1304l-35 0c605,1254 3940,3525 6529,4020 -465,-2175 237,-4219 1460,-5094z"/>
          </g>
          <g>
           <path class="fil1" d="M55388 52368c-127,-8 -290,-8 -422,-8 -38,92 -329,791 -809,1687 809,2 2491,-112 2960,-1112 11,0 11,-16 11,-16 -200,-268 -852,-467 -1741,-551z"/>
          </g>
          <g>
           <path class="fil1" d="M6221 53309c2131,-625 3582,-1797 3910,-2103 198,460 499,1123 850,1873 555,1154 2286,1304 3178,1304l38 0c-594,1254 -3917,3525 -6520,4020 475,-2175 -252,-4219 -1458,-5094z"/>
          </g>
          <g>
           <path class="fil1" d="M13035 52368c127,-8 265,-8 422,-8 42,92 312,791 782,1687 -782,2 -2441,-112 -2940,-1112 -7,0 -7,-16 -7,-16 210,-268 859,-467 1742,-551z"/>
          </g>
          <g>
           <path class="fil1" d="M34217 57602c6830,0 10924,-2039 13941,-3520 383,-176 742,-350 1066,-508 2251,-1069 4787,-1634 6171,-1506 800,71 1603,247 1894,640l2318 -5406c-1172,-1039 -2740,-1560 -4696,-1560 -2951,0 -5900,1199 -7034,1707 -484,217 -981,436 -1445,663 -3365,1555 -6810,3172 -12095,3172l-270 0c-5264,0 -8724,-1616 -12093,-3172 -457,-227 -954,-446 -1429,-663 -1122,-508 -4091,-1707 -7040,-1707 -1951,0 -3508,521 -4677,1560l2308 5406c279,-393 1076,-569 1892,-640 1381,-128 3925,438 6177,1506 340,158 700,332 1037,508 3020,1481 7138,3520 13975,3520z"/>
          </g>
          <g>
           <path class="fil2" d="M10929 6241c0,29684 10674,41260 23288,44706 12625,-3446 23297,-15022 23297,-44706l-23319 -5913 -5 0 -23262 5913z"/>
          </g>
          <g>
           <path class="fil1" d="M34207 51283l-88 -25c-15601,-4259 -23514,-19412 -23514,-45017l0 -253 23626 -5988 33 11 23567 5977 0 253c0,25605 -7929,40758 -23534,45017l-90 25zm-22958 -44798l0 0c43,25101 7767,39941 22958,44132 15198,-4191 22922,-19032 22982,-44132l-22999 -5842 -22942 5842z"/>
          </g>
          <g>
           <path class="fil0" d="M34217 47933c-13088,-4013 -19910,-17262 -20337,-39468l20310 -5146 20357 5159c-442,22192 -7280,35441 -20331,39455z"/>
          </g>
          <g>
           <path class="fil2" d="M22206 38241l0 -319c395,-43 675,-115 825,-202 150,-141 258,-400 258,-768l0 -5791c-218,-245 -427,-457 -599,-620 -178,-156 -325,-246 -439,-246l0 -294 2582 0 4346 5194 15 -3683c0,-403 -83,-700 -195,-871 -180,-229 -490,-345 -970,-345l0 -294 2675 0 0 294c-434,64 -700,143 -809,276 -105,133 -155,370 -155,697l0 7192 -345 0 -5543 -6593 -32 4865c0,423 98,720 248,889 167,161 487,258 956,301l0 319 -2818 0z"/>
          </g>
          <g>
           <path class="fil2" d="M45235 38144l0 320 -4549 0 0 -320c517,0 846,-64 974,-179 192,-151 284,-467 284,-965l0 -6536c-635,0 -1117,99 -1458,296 -567,319 -895,916 -1014,1781l-330 0 18 -2476 7592 0 0 2476 -335 0c-120,-865 -448,-1462 -994,-1781 -327,-197 -812,-296 -1447,-296l0 6536c0,498 106,814 270,965 145,115 462,179 989,179z"/>
          </g>
          <g>
           <path class="fil2" d="M38849 37956l0 503 -7350 0 0 -503c829,0 1344,-77 1577,-265 295,-219 434,-715 434,-1485l0 -10074c-1009,0 -1792,150 -2356,455 -895,506 -1441,1417 -1622,2767l-574 0 42 -3836 12308 0 38 3836 -569 0c-172,-1350 -700,-2261 -1591,-2767 -555,-306 -1342,-455 -2358,-455l0 10074c0,769 145,1266 427,1485 232,188 759,265 1594,265z"/>
          </g>
          <g>
           <path class="fil3" d="M32396 16957c0,0 -1996,1985 -1594,3652 205,743 865,1514 3088,2632 0,0 1032,498 989,1284 395,-600 1836,-2175 1441,-3588 -307,-1125 -1783,-1909 -2296,-2190 -520,-285 -1004,-585 -1004,-585 0,0 -590,-391 -624,-1205z"/>
          </g>
          <g>
           <path class="fil2" d="M34722 25017l27 -502c28,-689 -906,-1141 -917,-1149 -1975,-982 -2905,-1809 -3160,-2733 -409,-1713 1556,-3693 1636,-3764l242 -237 0 324c5,741 554,1104 554,1104 0,0 469,294 982,565l60 23c530,297 2008,1106 2323,2254 335,1255 -677,2619 -1237,3348 -105,146 -173,260 -229,352l-280 414zm-2434 -7743l0 0c-472,551 -1653,2044 -1354,3298 148,593 635,1353 3016,2552 47,13 812,391 1019,1041 24,-26 33,-44 43,-74 518,-694 1507,-2003 1182,-3119 -290,-1051 -1679,-1797 -2198,-2082l-47 -23c-518,-290 -989,-576 -989,-576 -43,-30 -532,-357 -674,-1018z"/>
          </g>
          <g>
           <path class="fil3" d="M33860 9217c0,0 -2489,2236 -2373,4433 60,638 160,2325 3242,3816 737,437 1175,667 1664,1263 735,911 670,2317 670,2317 0,0 2690,-2583 2330,-5321 -83,-605 -602,-1646 -1557,-2233 -991,-558 -2500,-1406 -3010,-1738 -1412,-932 -965,-2537 -965,-2537z"/>
          </g>
          <g>
           <path class="fil2" d="M36934 21379l0 -338c0,-16 33,-1373 -650,-2238 -418,-502 -799,-743 -1404,-1089l-232 -130c-3052,-1473 -3205,-3145 -3290,-3854l-3 -76c-120,-2238 2335,-4456 2416,-4546l382 -322 -147 455c-8,66 -417,1536 917,2399 309,189 982,592 1689,999 452,265 924,515 1301,745 937,569 1529,1621 1609,2328 392,2774 -2251,5327 -2369,5427l-218 238zm-3245 -11786l0 0c-639,658 -2161,2379 -2068,4042l27 61c51,673 210,2239 3138,3647l227 135c622,375 1045,600 1492,1165 534,664 655,1572 674,2069 654,-701 2363,-2809 2066,-4966 -58,-546 -557,-1578 -1487,-2119 -382,-235 -824,-487 -1264,-740 -722,-426 -1406,-821 -1729,-1020 -1027,-679 -1129,-1705 -1076,-2274z"/>
          </g>
          <g>
           <g>
            <polygon class="fil1" points="34174,4354 34516,5403 35611,5403 34729,6042 35073,7080 34174,6435 33275,7080 33612,6042 32692,5403 33829,5403 "/>
           </g>
           <g>
            <polygon class="fil1" points="43185,6810 43532,7838 44636,7838 43745,8492 44082,9533 43185,8889 42281,9533 42650,8492 41731,7838 42860,7838 "/>
           </g>
           <g>
            <polygon class="fil1" points="51266,9050 51634,10089 52728,10089 51833,10733 52176,11764 51266,11128 50381,11764 50722,10733 49812,10089 50936,10089 "/>
           </g>
           <g>
            <polygon class="fil1" points="25144,6810 24807,7838 23700,7838 24599,8492 24242,9533 25144,8889 26063,9533 25706,8492 26600,7838 25503,7838 "/>
           </g>
           <g>
            <polygon class="fil1" points="17058,9050 16710,10089 15608,10089 16501,10733 16168,11764 17058,11128 17952,11764 17600,10733 18518,10089 17400,10089 "/>
           </g>
          </g>
          <g>
           <g>
            <path class="fil0" d="M14978 47470l1663 396 -21 87 -83 -20c-125,-30 -214,-37 -267,-22 -53,15 -95,42 -126,83 -31,41 -69,152 -113,333l-381 1555c-70,284 -94,477 -73,580 21,103 74,196 159,281 85,84 203,145 356,181 174,41 332,38 474,-10 142,-47 260,-133 354,-254 94,-121 183,-351 265,-689l317 -1295c35,-142 45,-247 30,-315 -15,-68 -43,-120 -83,-154 -62,-53 -159,-95 -289,-125l21 -87 1114 265 -21 87 -67 -16c-90,-22 -170,-22 -239,0 -69,22 -126,65 -170,131 -33,45 -65,132 -97,261l-295 1207c-91,373 -183,636 -273,790 -91,153 -249,277 -477,370 -227,93 -508,100 -842,20 -279,-66 -485,-154 -619,-263 -183,-150 -298,-312 -345,-489 -47,-176 -39,-397 26,-661l381 -1555c45,-183 62,-299 52,-349 -10,-49 -37,-93 -81,-132 -44,-38 -135,-73 -271,-104l21 -87z"/>
           </g>
           <g>
            <path class="fil0" d="M20954 49437l580 2526 619 -1266c86,-176 119,-307 98,-394 -29,-118 -128,-215 -295,-291l39 -80 986 469 -39 80c-134,-44 -229,-64 -285,-59 -56,5 -109,30 -162,75 -52,46 -112,138 -180,277l-1198 2451 -75 -36 -820 -3411 -915 1871c-83,169 -99,302 -50,399 49,97 125,169 226,217l70 34 -39 81 -1059 -504 39 -81c165,77 296,98 392,63 96,-34 183,-129 259,-286l1016 -2077 -26 -108c-25,-108 -56,-186 -92,-234 -36,-47 -99,-94 -189,-140l39 -81 1059 504z"/>
           </g>
           <g>
            <path class="fil0" d="M24435 54510l-34 83 -1605 -644 34 -83 102 41c89,36 167,49 234,40 48,-5 93,-28 135,-71 32,-29 79,-119 141,-271l822 -1991c64,-155 95,-255 95,-300 -1,-45 -20,-93 -59,-142 -39,-49 -101,-92 -187,-126l-102 -41 34 -82 1605 644 -34 83 -102 -41c-89,-36 -167,-49 -234,-39 -48,5 -94,28 -137,70 -31,29 -78,120 -141,271l-822 1991c-64,155 -95,256 -94,301 1,45 21,93 60,143 39,49 101,91 187,125l102 41z"/>
           </g>
           <g>
            <path class="fil0" d="M30030 52743l-21 87c-122,-9 -241,29 -358,112 -85,63 -228,223 -429,482l-1693 2172 -78 -18 -501 -2786c-60,-336 -106,-536 -139,-599 -32,-64 -110,-118 -232,-161l21 -87 1546 360 -21 87 -53 -12c-139,-33 -238,-38 -298,-15 -42,15 -68,45 -79,91 -7,28 -8,63 -5,104 4,41 22,154 55,338l308 1743 975 -1261c117,-152 191,-256 222,-310 31,-53 52,-101 62,-142 11,-47 8,-91 -8,-133 -17,-42 -48,-78 -92,-108 -61,-42 -149,-77 -261,-103l21 -86 1059 246z"/>
           </g>
           <g>
            <path class="fil0" d="M32274 53115l-76 1328 66 3c210,12 366,-45 467,-170 102,-125 173,-313 214,-565l93 5 -98 1709 -93 -5c-9,-188 -41,-342 -97,-464 -56,-122 -124,-206 -205,-251 -81,-46 -200,-73 -358,-81l-52 919c-10,180 -9,290 5,331 13,41 40,75 81,104 41,28 108,44 203,49l198 11c309,17 561,-39 755,-170 194,-131 340,-339 438,-623l90 5 -208 1029 -2860 -158 5 -89 110 6c96,6 174,-7 235,-37 44,-20 78,-57 104,-110 20,-38 35,-138 44,-302l122 -2147c8,-147 9,-238 3,-272 -13,-57 -41,-102 -83,-135 -59,-48 -143,-75 -250,-81l-110 -6 5 -89 2770 154 -55 965 -93 -5c-34,-238 -91,-411 -170,-519 -80,-107 -196,-190 -350,-246 -90,-34 -259,-57 -510,-71l-342 -19z"/>
           </g>
           <g>
            <path class="fil0" d="M36622 54678l90 912c17,176 39,285 65,329 27,43 68,76 126,98 58,22 162,25 313,10l9 89 -1688 162 -9 -89c152,-15 254,-38 306,-72 52,-33 86,-73 103,-120 18,-46 18,-158 0,-334l-209 -2110c-17,-176 -39,-286 -65,-329 -26,-44 -68,-76 -127,-98 -57,-22 -162,-26 -313,-11l-9 -89 1532 -147c399,-38 694,-39 884,-3 190,37 351,123 482,258 131,135 207,301 226,498 24,240 -44,447 -204,620 -102,110 -251,200 -447,269l902 1025c118,132 200,214 248,245 71,43 151,63 239,59l9 89 -1039 100 -1209 -1380 -216 20zm-158 -1594l0 0 141 1424 138 -13c226,-22 392,-58 500,-110 108,-51 188,-133 242,-246 53,-112 72,-254 55,-425 -25,-248 -101,-426 -231,-532 -129,-107 -325,-148 -586,-123l-260 25z"/>
           </g>
           <g>
            <path class="fil0" d="M41790 51825l319 1043 -97 27c-119,-251 -290,-433 -513,-545 -223,-112 -438,-139 -646,-83 -160,43 -275,120 -345,230 -70,110 -90,220 -59,329 19,70 53,128 101,173 66,60 159,112 279,157 88,31 284,75 587,132 424,80 724,183 900,309 174,126 290,293 348,501 73,263 32,518 -123,764 -155,246 -393,413 -713,500 -101,27 -199,43 -294,47 -95,4 -218,-3 -369,-22 -84,-11 -150,-9 -199,4 -41,11 -80,38 -116,81 -37,43 -61,101 -71,172l-87 23 -332 -1189 87 -24c162,316 367,535 613,657 246,122 483,153 711,91 176,-48 303,-133 381,-256 78,-123 100,-247 65,-373 -21,-75 -61,-141 -120,-200 -59,-59 -139,-108 -238,-149 -99,-41 -266,-83 -502,-128 -330,-62 -572,-125 -727,-190 -155,-65 -284,-149 -386,-253 -102,-104 -174,-229 -215,-376 -70,-251 -36,-490 101,-717 138,-227 349,-380 633,-457 104,-28 208,-43 312,-44 79,-1 179,9 299,30 120,21 201,26 244,14 41,-10 70,-32 86,-63 17,-31 22,-96 16,-197l71 -19z"/>
           </g>
           <g>
            <path class="fil0" d="M46010 53674l35 82 -1594 670 -35 -82 101 -42c88,-38 153,-83 193,-137 30,-37 45,-85 44,-144 1,-43 -31,-139 -96,-290l-855 -1977c-66,-154 -116,-246 -149,-278 -33,-31 -81,-51 -144,-59 -63,-7 -137,7 -222,42l-101 43 -35 -82 1594 -671 35 83 -101 42c-89,37 -153,83 -193,137 -30,37 -45,85 -46,144 -1,43 31,140 96,290l855 1977c66,154 116,246 150,277 34,31 82,51 145,58 63,8 137,-6 222,-42l101 -42z"/>
           </g>
           <g>
            <path class="fil0" d="M48597 48917l382 800 -79 37c-135,-162 -251,-271 -347,-325 -96,-53 -206,-81 -329,-83 -68,0 -173,32 -313,98l-223 103 1091 2280c73,151 126,242 161,271 35,30 84,47 147,53 63,5 137,-12 223,-51l99 -46 39 81 -1569 730 -39 -81 100 -46c87,-41 150,-88 188,-144 29,-38 42,-87 41,-146 0,-42 -36,-138 -107,-286l-1091 -2280 -217 101c-202,94 -329,204 -379,331 -72,177 -73,383 -2,617l-84 39 -383 -800 2692 -1252z"/>
           </g>
           <g>
            <path class="fil0" d="M53686 47432l20 87c-103,38 -178,87 -224,147 -64,84 -148,292 -251,623l-430 1313 180 771c38,164 71,264 98,300 27,36 69,63 128,82 59,18 131,18 217,-1l181 -41 21 87 -1813 412 -20 -87 169 -38c95,-22 167,-55 215,-101 36,-32 60,-77 71,-135 9,-42 -6,-142 -43,-302l-150 -638 -1079 -1192c-214,-235 -357,-369 -431,-403 -73,-34 -161,-40 -265,-18l-20 -86 1548 -353 20 87 -69 16c-94,21 -156,49 -187,85 -31,35 -43,67 -36,97 13,56 110,184 290,382l830 922 357 -1093c89,-267 125,-440 107,-516 -10,-42 -39,-73 -87,-92 -63,-27 -168,-28 -314,-2l-20 -87 986 -224z"/>
           </g>
          </g>
         </g>
        </g>
       </g>
      </g>
     </g>
    </g>
   </g>
   <g>
    <polygon class="fil0" points="98480,25125 95055,25125 90045,13998 90045,25125 86620,25125 86620,8162 90045,8162 95066,19299 95066,8162 98480,8162 "/>
    <path class="fil0" d="M113288 23202c-179,194 -419,416 -722,664 -303,249 -681,483 -1136,705 -454,221 -988,408 -1602,559 -614,151 -1321,227 -2120,227 -948,0 -1802,-148 -2563,-443 -761,-295 -1414,-741 -1957,-1340 -544,-598 -961,-1353 -1252,-2266 -291,-913 -437,-1987 -437,-3221l0 -2866c0,-1235 140,-2309 420,-3221 280,-913 678,-1672 1194,-2278 516,-606 1146,-1056 1888,-1351 742,-295 1575,-443 2499,-443 963,0 1794,120 2493,361 699,241 1282,600 1748,1078 466,478 823,1068 1072,1771 248,703 408,1513 478,2429l-3332 0c-47,-536 -122,-982 -227,-1340 -105,-357 -252,-643 -443,-856 -190,-214 -423,-367 -699,-460 -276,-93 -604,-140 -984,-140 -451,0 -843,80 -1177,239 -334,159 -611,416 -833,769 -221,353 -386,812 -495,1375 -109,563 -163,1245 -163,2045l0 2889c0,808 60,1491 181,2051 120,559 303,1016 548,1369 244,353 553,610 926,769 373,159 811,239 1317,239 303,0 561,-23 775,-70 214,-47 396,-103 548,-169 152,-66 276,-134 373,-204 97,-70 181,-128 250,-175l0 -3111 -2400 0 0 -2586 5837 0 0 7002z"/>
    <path class="fil0" d="M127269 8162l0 11650c0,987 -138,1829 -414,2528 -276,699 -660,1272 -1153,1719 -493,447 -1082,775 -1765,984 -684,210 -1429,315 -2237,315 -823,0 -1579,-105 -2266,-315 -687,-210 -1278,-538 -1771,-984 -493,-447 -878,-1019 -1153,-1719 -276,-699 -413,-1542 -413,-2528l0 -11650 3448 0 0 11650c0,559 47,1014 140,1363 93,349 231,623 413,821 182,198 408,334 676,408 268,74 577,111 926,111 349,0 658,-37 926,-111 268,-74 491,-210 670,-408 179,-198 314,-472 408,-821 93,-349 140,-804 140,-1363l0 -11650 3425 0z"/>
    <polygon class="fil0" points="135507,15781 138058,8162 141787,8162 137243,18973 137243,25125 133771,25125 133771,18973 129216,8162 132944,8162 "/>
    <polygon class="fil0" points="152622,17785 147286,17785 147286,22282 153601,22282 153601,25125 143861,25125 143861,8162 153577,8162 153577,11016 147286,11016 147286,15024 152622,15024 "/>
    <polygon class="fil0" points="167955,25125 164529,25125 159520,13998 159520,25125 156094,25125 156094,8162 159520,8162 164541,19299 164541,8162 167955,8162 "/>
    <polygon class="fil0" points="187540,11016 183346,11016 183346,25125 179909,25125 179909,11016 175785,11016 175785,8162 187540,8162 "/>
    <path class="fil0" d="M196733 21653l-4672 0 -909 3472 -3623 0 5301 -16963 3134 0 5336 16963 -3658 0 -909 -3472zm-3926 -2854l0 0 3169 0 -1584 -6047 -1585 6047z"/>
    <polygon class="fil0" points="212998,11016 208803,11016 208803,25125 205366,25125 205366,11016 201242,11016 201242,8162 212998,8162 "/>
    <polygon class="fil0" points="231104,11016 226910,11016 226910,25125 223473,25125 223473,11016 219349,11016 219349,8162 231104,8162 "/>
    <polygon class="fil0" points="245493,25125 242079,25125 242079,17866 237023,17866 237023,25125 233597,25125 233597,8162 237023,8162 237023,15024 242079,15024 242079,8162 245493,8162 "/>
    <path class="fil0" d="M257074 21653l-4672 0 -909 3472 -3623 0 5301 -16963 3134 0 5336 16963 -3658 0 -909 -3472zm-3926 -2854l0 0 3169 0 -1584 -6047 -1585 6047z"/>
    <polygon class="fil0" points="275610,25125 272185,25125 267175,13998 267175,25125 263750,25125 263750,8162 267175,8162 272196,19299 272196,8162 275610,8162 "/>
    <polygon class="fil0" points="290780,25125 287366,25125 287366,17866 282310,17866 282310,25125 278884,25125 278884,8162 282310,8162 282310,15024 287366,15024 287366,8162 290780,8162 "/>
    <path class="fil0" d="M93971 36219l0 8723c0,697 -105,1288 -315,1773 -210,485 -490,880 -842,1186 -351,306 -757,527 -1216,663 -459,136 -941,204 -1445,204 -533,0 -1030,-68 -1492,-204 -462,-136 -863,-357 -1203,-663 -340,-306 -608,-701 -803,-1186 -196,-485 -293,-1076 -293,-1773l0 -8723 1547 0 0 8723c0,482 54,883 162,1203 108,320 259,577 455,769 196,193 431,329 706,408 275,79 583,119 922,119 340,0 649,-40 927,-119 278,-79 514,-215 710,-408 196,-193 347,-449 455,-769 108,-320 162,-721 162,-1203l0 -8723 1564 0z"/>
    <polygon class="fil0" points="105498,48598 103934,48598 98978,39059 98978,48598 97413,48598 97413,36219 98978,36219 103951,45801 103951,36219 105498,36219 "/>
    <polygon class="fil0" points="110862,48598 109306,48598 109306,36219 110862,36219 "/>
    <polygon class="fil0" points="118172,46209 121003,36219 122712,36219 118861,48598 117501,48598 113658,36219 115358,36219 "/>
    <polygon class="fil0" points="131366,42876 126987,42876 126987,47263 132088,47263 132088,48598 125432,48598 125432,36219 132003,36219 132003,37562 126987,37562 126987,41541 131366,41541 "/>
    <path class="fil0" d="M138863 43590l-2176 0 0 5008 -1564 0 0 -12378 3469 0c1213,0 2131,316 2755,948 623,632 935,1557 935,2776 0,765 -169,1433 -506,2002 -337,570 -815,999 -1433,1288l2398 5262 0 102 -1675 0 -2202 -5008zm-2176 -1335l0 0 1887 0c357,0 669,-61 935,-183 266,-122 489,-286 667,-493 179,-207 313,-451 404,-731 91,-281 136,-582 136,-905 0,-357 -40,-682 -119,-974 -79,-292 -204,-543 -374,-752 -170,-210 -390,-371 -659,-485 -269,-113 -594,-170 -974,-170l-1904 0 0 4693z"/>
    <path class="fil0" d="M150816 45469c0,-289 -33,-544 -98,-765 -65,-221 -186,-424 -361,-608 -176,-184 -414,-357 -714,-518 -300,-162 -689,-327 -1165,-497 -510,-176 -972,-375 -1386,-599 -414,-224 -767,-482 -1059,-774 -292,-292 -517,-625 -676,-999 -159,-374 -238,-802 -238,-1284 0,-482 83,-928 251,-1339 167,-411 405,-768 714,-1071 309,-303 683,-540 1122,-710 439,-170 928,-255 1467,-255 601,0 1132,105 1594,314 462,210 850,488 1165,833 314,346 551,745 710,1199 159,454 238,921 238,1403l-1564 0c0,-346 -41,-666 -123,-960 -82,-295 -211,-550 -387,-765 -176,-215 -398,-383 -667,-502 -269,-119 -591,-178 -965,-178 -346,0 -644,51 -893,153 -249,102 -455,242 -616,421 -162,179 -281,390 -357,633 -77,244 -115,510 -115,799 0,522 187,958 561,1309 374,352 952,666 1734,944 601,198 1116,418 1547,659 431,241 783,514 1058,820 275,306 476,649 604,1029 127,380 191,811 191,1292 0,505 -85,961 -255,1369 -170,408 -412,757 -727,1046 -315,289 -696,512 -1144,667 -448,156 -952,234 -1513,234 -487,0 -968,-80 -1441,-238 -473,-159 -896,-395 -1267,-710 -371,-315 -672,-707 -901,-1177 -230,-470 -344,-1015 -344,-1632l1564 0c0,425 62,789 187,1092 124,303 296,554 514,752 218,199 472,344 761,438 289,94 598,140 926,140 686,0 1202,-176 1547,-527 346,-351 519,-830 519,-1437z"/>
    <polygon class="fil0" points="157097,48598 155541,48598 155541,36219 157097,36219 "/>
    <polygon class="fil0" points="167859,37562 164603,37562 164603,48598 163047,48598 163047,37562 159799,37562 159799,36219 167859,36219 "/>
    <polygon class="fil0" points="174090,42434 176623,36219 178383,36219 174863,43981 174863,48598 173308,48598 173308,43981 169788,36219 171556,36219 "/>
   </g>
   <g>
    <path class="fil0" d="M87531 63120l-975 0 0 2244 -701 0 0 -5547 1555 0c544,0 955,142 1234,425 279,283 419,698 419,1244 0,343 -76,642 -227,897 -151,255 -365,448 -642,577l1074 2358 0 46 -751 0 -987 -2244zm-975 -598l0 0 846 0c160,0 300,-27 419,-82 119,-55 219,-128 299,-221 80,-93 140,-202 181,-328 40,-126 61,-261 61,-406 0,-160 -18,-305 -53,-436 -35,-131 -91,-243 -168,-337 -76,-94 -175,-166 -295,-217 -121,-51 -266,-76 -436,-76l-853 0 0 2103z"/>
    <polygon class="fil0" points="92656,62800 90694,62800 90694,64766 92980,64766 92980,65364 89997,65364 89997,59817 92942,59817 92942,60419 90694,60419 90694,62202 92656,62202 "/>
    <path class="fil0" d="M96458 63916l-1874 0 -431 1448 -716 0 1787 -5547 598 0 1790 5547 -716 0 -438 -1448zm-1692 -602l0 0 1513 0 -758 -2522 -754 2522z"/>
    <polygon class="fil0" points="99068,64766 101244,64766 101244,65364 98367,65364 98367,59817 99068,59817 "/>
    <polygon class="fil0" points="104562,64766 106738,64766 106738,65364 103861,65364 103861,59817 104562,59817 "/>
    <polygon class="fil0" points="110228,62800 108266,62800 108266,64766 110552,64766 110552,65364 107568,65364 107568,59817 110513,59817 110513,60419 108266,60419 108266,62202 110228,62202 "/>
    <path class="fil0" d="M114030 63916l-1875 0 -430 1448 -716 0 1787 -5547 598 0 1790 5547 -716 0 -438 -1448zm-1692 -602l0 0 1513 0 -758 -2522 -754 2522z"/>
    <path class="fil0" d="M117615 63120l-975 0 0 2244 -701 0 0 -5547 1555 0c543,0 955,142 1234,425 279,283 419,698 419,1244 0,343 -75,642 -227,897 -151,255 -365,448 -642,577l1074 2358 0 46 -751 0 -987 -2244zm-975 -598l0 0 846 0c160,0 300,-27 419,-82 119,-55 219,-128 299,-221 80,-93 140,-202 181,-328 40,-126 61,-261 61,-406 0,-160 -18,-305 -53,-436 -35,-131 -91,-243 -168,-337 -76,-94 -175,-166 -295,-217 -121,-51 -266,-76 -436,-76l-853 0 0 2103z"/>
    <polygon class="fil0" points="123703,65364 123002,65364 120781,61089 120781,65364 120080,65364 120080,59817 120781,59817 123010,64111 123010,59817 123703,59817 "/>
    <polygon class="fil0" points="125639,65364 124942,65364 124942,59817 125639,59817 "/>
    <polygon class="fil0" points="130485,65364 129784,65364 127563,61089 127563,65364 126862,65364 126862,59817 127563,59817 129792,64111 129792,59817 130485,59817 "/>
    <path class="fil0" d="M135164 64675c-45,61 -107,135 -185,223 -78,88 -181,171 -311,252 -130,80 -289,149 -478,206 -189,57 -419,86 -688,86 -287,0 -549,-48 -787,-145 -238,-96 -441,-241 -612,-434 -170,-193 -302,-436 -396,-728 -94,-292 -141,-632 -141,-1021l0 -1044c0,-1552 621,-2328 1863,-2328 269,0 509,39 718,116 210,77 387,189 532,335 145,146 258,325 339,535 81,211 130,450 145,716l-697 0c-28,-345 -124,-615 -288,-810 -164,-194 -412,-292 -745,-292 -213,0 -394,36 -541,107 -147,71 -268,179 -360,322 -93,144 -160,323 -202,537 -42,215 -63,465 -63,753l0 1051c0,295 29,551 87,770 59,218 142,399 250,541 108,142 238,248 391,318 152,70 323,105 510,105 160,0 295,-14 404,-42 109,-28 200,-62 272,-103 73,-41 130,-81 173,-122 43,-41 80,-75 110,-103l0 -1280 -1013 0 0 -594 1711 0 0 2073z"/>
    <polygon class="fil0" points="139245,63295 137671,63295 137671,62720 139245,62720 "/>
    <path class="fil0" d="M143489 63120l-975 0 0 2244 -701 0 0 -5547 1555 0c543,0 955,142 1234,425 279,283 419,698 419,1244 0,343 -75,642 -227,897 -151,255 -365,448 -642,577l1074 2358 0 46 -751 0 -987 -2244zm-975 -598l0 0 846 0c160,0 300,-27 419,-82 119,-55 219,-128 299,-221 80,-93 140,-202 181,-328 40,-126 61,-261 61,-406 0,-160 -18,-305 -53,-436 -35,-131 -91,-243 -168,-337 -76,-94 -175,-166 -295,-217 -121,-51 -266,-76 -436,-76l-853 0 0 2103z"/>
    <polygon class="fil0" points="148613,62800 146651,62800 146651,64766 148937,64766 148937,65364 145954,65364 145954,59817 148899,59817 148899,60419 146651,60419 146651,62202 148613,62202 "/>
    <path class="fil0" d="M152416 63916l-1875 0 -430 1448 -716 0 1787 -5547 598 0 1791 5547 -716 0 -438 -1448zm-1692 -602l0 0 1513 0 -758 -2522 -754 2522z"/>
    <polygon class="fil0" points="155025,64766 157201,64766 157201,65364 154324,65364 154324,59817 155025,59817 "/>
    <path class="fil0" d="M162241 63962c0,-129 -15,-244 -44,-343 -29,-99 -83,-190 -162,-273 -79,-82 -185,-160 -320,-232 -135,-72 -309,-147 -522,-223 -229,-79 -436,-168 -621,-269 -185,-100 -344,-216 -474,-347 -131,-131 -232,-280 -303,-448 -71,-168 -107,-359 -107,-575 0,-216 37,-416 113,-600 75,-184 181,-344 320,-480 139,-136 306,-242 503,-318 197,-76 416,-114 657,-114 269,0 507,47 714,141 207,94 381,219 522,374 141,155 247,334 318,537 71,203 107,413 107,629l-701 0c0,-155 -18,-298 -55,-431 -37,-132 -95,-246 -173,-343 -79,-97 -179,-171 -299,-225 -121,-53 -265,-80 -432,-80 -155,0 -288,23 -400,69 -112,46 -204,108 -276,189 -72,80 -126,175 -160,284 -34,109 -51,229 -51,358 0,234 84,429 252,587 167,158 427,298 777,423 269,89 500,187 693,295 193,108 351,231 474,368 123,137 213,291 271,461 57,170 86,363 86,579 0,226 -38,430 -114,613 -76,183 -185,339 -326,469 -141,130 -312,229 -512,299 -201,70 -427,105 -678,105 -219,0 -434,-35 -646,-107 -212,-71 -401,-177 -568,-318 -167,-141 -301,-317 -404,-528 -103,-211 -155,-455 -155,-731l701 0c0,191 28,354 84,490 56,136 133,248 230,337 98,89 211,154 341,196 130,42 268,63 415,63 307,0 539,-79 693,-236 155,-157 233,-372 233,-644z"/>
    <path class="fil0" d="M167168 59817l0 3909c0,313 -47,577 -141,794 -94,217 -220,394 -377,532 -158,137 -339,236 -545,297 -206,61 -422,91 -647,91 -239,0 -462,-30 -669,-91 -207,-61 -387,-160 -539,-297 -153,-137 -273,-314 -360,-532 -87,-217 -131,-482 -131,-794l0 -3909 694 0 0 3909c0,216 24,396 72,539 48,144 116,259 204,345 88,86 193,147 316,183 123,36 261,53 414,53 152,0 291,-18 415,-53 124,-35 231,-96 318,-183 88,-86 156,-201 204,-345 48,-143 73,-323 73,-539l0 -3909 701 0z"/>
    <path class="fil0" d="M171721 63604c-15,287 -63,543 -143,770 -80,226 -193,418 -341,577 -147,159 -329,280 -547,364 -217,84 -469,126 -756,126 -279,0 -531,-55 -754,-164 -224,-109 -414,-265 -571,-469 -158,-203 -279,-448 -364,-735 -85,-287 -128,-610 -128,-968l0 -1025c0,-356 42,-678 128,-966 85,-288 208,-534 369,-737 161,-203 359,-360 592,-471 234,-110 498,-166 792,-166 269,0 507,41 714,122 207,81 383,201 528,358 145,158 258,352 339,583 81,231 128,497 141,796l-705 0c-15,-219 -45,-406 -88,-564 -43,-158 -105,-288 -187,-390 -81,-103 -183,-179 -305,-229 -122,-49 -268,-74 -438,-74 -203,0 -378,41 -526,124 -147,83 -269,199 -366,349 -97,150 -168,331 -215,545 -47,213 -71,451 -71,712l0 1033c0,244 20,471 59,682 39,211 103,395 191,552 88,158 203,282 345,372 142,90 315,135 518,135 191,0 351,-24 482,-71 131,-47 237,-121 320,-221 82,-100 145,-229 189,-385 43,-156 74,-345 91,-566l705 0z"/>
    <path class="fil0" d="M176144 63604c-15,287 -63,543 -143,770 -80,226 -194,418 -341,577 -147,159 -329,280 -547,364 -217,84 -469,126 -756,126 -279,0 -531,-55 -754,-164 -224,-109 -414,-265 -571,-469 -158,-203 -279,-448 -364,-735 -85,-287 -128,-610 -128,-968l0 -1025c0,-356 43,-678 128,-966 85,-288 208,-534 370,-737 161,-203 359,-360 592,-471 234,-110 498,-166 792,-166 269,0 507,41 714,122 207,81 383,201 528,358 145,158 258,352 339,583 81,231 128,497 141,796l-705 0c-15,-219 -45,-406 -88,-564 -43,-158 -105,-288 -187,-390 -81,-103 -183,-179 -305,-229 -122,-49 -268,-74 -438,-74 -203,0 -378,41 -526,124 -147,83 -269,199 -366,349 -97,150 -168,331 -215,545 -47,213 -71,451 -71,712l0 1033c0,244 20,471 59,682 39,211 103,395 191,552 88,158 203,282 345,372 142,90 315,135 518,135 191,0 351,-24 482,-71 131,-47 237,-121 320,-221 82,-100 145,-229 188,-385 43,-156 74,-345 92,-566l705 0z"/>
    <polygon class="fil0" points="179748,62800 177786,62800 177786,64766 180072,64766 180072,65364 177089,65364 177089,59817 180034,59817 180034,60419 177786,60419 177786,62202 179748,62202 "/>
    <path class="fil0" d="M183387 63962c0,-129 -15,-244 -44,-343 -29,-99 -83,-190 -162,-273 -79,-82 -185,-160 -320,-232 -135,-72 -309,-147 -522,-223 -229,-79 -436,-168 -621,-269 -185,-100 -344,-216 -474,-347 -131,-131 -232,-280 -303,-448 -71,-168 -107,-359 -107,-575 0,-216 37,-416 112,-600 75,-184 181,-344 320,-480 138,-136 306,-242 503,-318 197,-76 416,-114 657,-114 269,0 507,47 714,141 207,94 381,219 522,374 141,155 247,334 318,537 71,203 107,413 107,629l-701 0c0,-155 -18,-298 -55,-431 -37,-132 -95,-246 -173,-343 -79,-97 -179,-171 -299,-225 -121,-53 -265,-80 -433,-80 -155,0 -288,23 -400,69 -112,46 -204,108 -276,189 -73,80 -126,175 -160,284 -34,109 -51,229 -51,358 0,234 84,429 251,587 168,158 427,298 777,423 269,89 500,187 694,295 193,108 351,231 474,368 123,137 213,291 270,461 57,170 86,363 86,579 0,226 -38,430 -114,613 -76,183 -185,339 -326,469 -141,130 -312,229 -512,299 -201,70 -427,105 -678,105 -218,0 -434,-35 -646,-107 -212,-71 -401,-177 -568,-318 -166,-141 -301,-317 -404,-528 -103,-211 -154,-455 -154,-731l701 0c0,191 28,354 84,490 56,136 133,248 231,337 98,89 211,154 341,196 130,42 268,63 415,63 307,0 539,-79 694,-236 155,-157 233,-372 233,-644z"/>
    <path class="fil0" d="M187429 63962c0,-129 -15,-244 -44,-343 -29,-99 -83,-190 -162,-273 -79,-82 -185,-160 -320,-232 -135,-72 -309,-147 -522,-223 -229,-79 -436,-168 -621,-269 -185,-100 -344,-216 -474,-347 -131,-131 -232,-280 -303,-448 -71,-168 -107,-359 -107,-575 0,-216 37,-416 113,-600 75,-184 181,-344 320,-480 138,-136 306,-242 503,-318 197,-76 416,-114 657,-114 269,0 507,47 714,141 207,94 381,219 522,374 141,155 247,334 318,537 71,203 107,413 107,629l-701 0c0,-155 -18,-298 -55,-431 -37,-132 -95,-246 -173,-343 -79,-97 -179,-171 -299,-225 -121,-53 -265,-80 -432,-80 -155,0 -288,23 -400,69 -112,46 -204,108 -276,189 -73,80 -126,175 -160,284 -34,109 -51,229 -51,358 0,234 84,429 252,587 167,158 427,298 777,423 269,89 500,187 694,295 193,108 351,231 474,368 123,137 213,291 271,461 57,170 86,363 86,579 0,226 -38,430 -114,613 -76,183 -185,339 -326,469 -141,130 -312,229 -512,299 -201,70 -427,105 -678,105 -219,0 -434,-35 -646,-107 -212,-71 -401,-177 -568,-318 -166,-141 -301,-317 -404,-528 -103,-211 -154,-455 -154,-731l701 0c0,191 28,354 84,490 56,136 133,248 230,337 98,89 211,154 341,196 130,42 268,63 415,63 307,0 539,-79 694,-236 155,-157 232,-372 232,-644z"/>
    <polygon class="fil0" points="191990,63295 190416,63295 190416,62720 191990,62720 "/>
    <path class="fil0" d="M196234 63120l-975 0 0 2244 -701 0 0 -5547 1555 0c543,0 955,142 1234,425 279,283 419,698 419,1244 0,343 -75,642 -227,897 -151,255 -365,448 -642,577l1074 2358 0 46 -751 0 -987 -2244zm-975 -598l0 0 846 0c160,0 300,-27 419,-82 119,-55 219,-128 299,-221 80,-93 140,-202 181,-328 41,-126 61,-261 61,-406 0,-160 -18,-305 -53,-436 -35,-131 -91,-243 -168,-337 -76,-94 -175,-166 -295,-217 -121,-51 -266,-76 -436,-76l-853 0 0 2103z"/>
    <polygon class="fil0" points="201359,62800 199397,62800 199397,64766 201683,64766 201683,65364 198699,65364 198699,59817 201645,59817 201645,60419 199397,60419 199397,62202 201359,62202 "/>
    <path class="fil0" d="M205161 63916l-1875 0 -430 1448 -716 0 1787 -5547 598 0 1790 5547 -716 0 -438 -1448zm-1692 -602l0 0 1513 0 -758 -2522 -754 2522z"/>
    <polygon class="fil0" points="207771,64766 209946,64766 209946,65364 207070,65364 207070,59817 207771,59817 "/>
    <path class="fil0" d="M213261 63192l0 2172 -697 0 0 -5547 1768 0c267,0 503,42 711,126 207,84 380,201 520,352 140,151 246,330 318,537 73,207 109,434 109,680 0,267 -36,505 -109,714 -72,210 -179,386 -320,528 -141,142 -314,251 -520,326 -206,75 -442,112 -709,112l-1071 0zm0 -598l0 0 1071 0c170,0 316,-27 436,-80 121,-53 220,-128 297,-223 77,-95 134,-208 171,-339 37,-131 55,-275 55,-432 0,-142 -18,-280 -55,-413 -37,-133 -94,-251 -171,-352 -77,-102 -177,-183 -297,-244 -121,-61 -266,-91 -436,-91l-1071 0 0 2175z"/>
    <path class="fil0" d="M218565 63120l-975 0 0 2244 -701 0 0 -5547 1555 0c543,0 955,142 1234,425 279,283 419,698 419,1244 0,343 -75,642 -227,897 -151,255 -365,448 -642,577l1074 2358 0 46 -751 0 -987 -2244zm-975 -598l0 0 846 0c160,0 300,-27 419,-82 119,-55 219,-128 299,-221 80,-93 140,-202 181,-328 41,-126 61,-261 61,-406 0,-160 -18,-305 -53,-436 -35,-131 -91,-243 -168,-337 -76,-94 -175,-166 -295,-217 -121,-51 -266,-76 -436,-76l-853 0 0 2103z"/>
    <polygon class="fil0" points="223689,62800 221727,62800 221727,64766 224013,64766 224013,65364 221029,65364 221029,59817 223975,59817 223975,60419 221727,60419 221727,62202 223689,62202 "/>
    <path class="fil0" d="M227327 63962c0,-129 -15,-244 -44,-343 -29,-99 -83,-190 -162,-273 -79,-82 -185,-160 -320,-232 -135,-72 -309,-147 -522,-223 -229,-79 -436,-168 -621,-269 -185,-100 -344,-216 -474,-347 -131,-131 -232,-280 -303,-448 -71,-168 -107,-359 -107,-575 0,-216 37,-416 112,-600 75,-184 181,-344 320,-480 138,-136 306,-242 503,-318 197,-76 416,-114 657,-114 269,0 507,47 714,141 207,94 381,219 522,374 141,155 247,334 318,537 71,203 107,413 107,629l-701 0c0,-155 -18,-298 -55,-431 -37,-132 -95,-246 -173,-343 -79,-97 -179,-171 -299,-225 -121,-53 -265,-80 -432,-80 -155,0 -288,23 -400,69 -112,46 -204,108 -276,189 -73,80 -126,175 -160,284 -34,109 -51,229 -51,358 0,234 84,429 252,587 167,158 427,298 777,423 269,89 500,187 694,295 193,108 351,231 474,368 123,137 213,291 271,461 57,170 86,363 86,579 0,226 -38,430 -114,613 -76,183 -185,339 -326,469 -141,130 -312,229 -512,299 -201,70 -427,105 -678,105 -219,0 -434,-35 -646,-107 -212,-71 -401,-177 -568,-318 -166,-141 -301,-317 -404,-528 -103,-211 -154,-455 -154,-731l701 0c0,191 28,354 84,490 56,136 133,248 230,337 98,89 211,154 341,196 130,42 268,63 415,63 307,0 539,-79 694,-236 155,-157 232,-372 232,-644z"/>
    <polygon class="fil0" points="232189,60419 230730,60419 230730,65364 230033,65364 230033,60419 228577,60419 228577,59817 232189,59817 "/>
    <polygon class="fil0" points="233736,65364 233039,65364 233039,59817 233736,59817 "/>
    <path class="fil0" d="M238430 64675c-46,61 -107,135 -185,223 -78,88 -181,171 -311,252 -130,80 -289,149 -478,206 -189,57 -419,86 -688,86 -287,0 -549,-48 -787,-145 -238,-96 -441,-241 -612,-434 -170,-193 -302,-436 -396,-728 -94,-292 -141,-632 -141,-1021l0 -1044c0,-1552 621,-2328 1863,-2328 269,0 509,39 718,116 210,77 387,189 532,335 145,146 258,325 339,535 81,211 130,450 145,716l-697 0c-28,-345 -124,-615 -288,-810 -164,-194 -412,-292 -745,-292 -213,0 -394,36 -541,107 -147,71 -267,179 -360,322 -93,144 -160,323 -202,537 -42,215 -63,465 -63,753l0 1051c0,295 29,551 88,770 59,218 142,399 250,541 108,142 238,248 390,318 152,70 323,105 510,105 160,0 295,-14 404,-42 109,-28 200,-62 272,-103 73,-41 130,-81 173,-122 43,-41 80,-75 110,-103l0 -1280 -1013 0 0 -594 1711 0 0 2073z"/>
    <polygon class="fil0" points="242228,62800 240266,62800 240266,64766 242552,64766 242552,65364 239569,65364 239569,59817 242514,59817 242514,60419 240266,60419 240266,62202 242228,62202 "/>
    <polygon class="fil0" points="246385,63295 244811,63295 244811,62720 246385,62720 "/>
    <path class="fil0" d="M250630 63120l-975 0 0 2244 -701 0 0 -5547 1555 0c543,0 955,142 1234,425 279,283 419,698 419,1244 0,343 -75,642 -227,897 -151,255 -365,448 -642,577l1074 2358 0 46 -751 0 -987 -2244zm-975 -598l0 0 846 0c160,0 300,-27 419,-82 119,-55 219,-128 299,-221 80,-93 140,-202 181,-328 41,-126 61,-261 61,-406 0,-160 -18,-305 -53,-436 -35,-131 -91,-243 -168,-337 -76,-94 -175,-166 -295,-217 -121,-51 -266,-76 -436,-76l-853 0 0 2103z"/>
    <polygon class="fil0" points="255754,62800 253792,62800 253792,64766 256078,64766 256078,65364 253095,65364 253095,59817 256040,59817 256040,60419 253792,60419 253792,62202 255754,62202 "/>
    <path class="fil0" d="M259556 63916l-1875 0 -430 1448 -716 0 1787 -5547 598 0 1791 5547 -716 0 -438 -1448zm-1692 -602l0 0 1513 0 -758 -2522 -754 2522z"/>
    <polygon class="fil0" points="262166,64766 264341,64766 264341,65364 261465,65364 261465,59817 262166,59817 "/>
    <polygon class="fil0" points="269531,62914 267656,62914 267656,65364 266959,65364 266959,59817 269847,59817 269847,60419 267656,60419 267656,62316 269531,62316 "/>
    <path class="fil0" d="M274015 59817l0 3909c0,313 -47,577 -141,794 -94,217 -220,394 -377,532 -158,137 -339,236 -545,297 -206,61 -422,91 -647,91 -239,0 -462,-30 -669,-91 -207,-61 -387,-160 -539,-297 -152,-137 -273,-314 -360,-532 -87,-217 -131,-482 -131,-794l0 -3909 694 0 0 3909c0,216 24,396 72,539 48,144 116,259 204,345 88,86 193,147 316,183 123,36 261,53 414,53 152,0 291,-18 415,-53 124,-35 231,-96 318,-183 88,-86 156,-201 204,-345 48,-143 73,-323 73,-539l0 -3909 701 0z"/>
    <polygon class="fil0" points="278332,60419 276873,60419 276873,65364 276175,65364 276175,60419 274720,60419 274720,59817 278332,59817 "/>
    <path class="fil0" d="M282458 59817l0 3909c0,313 -47,577 -141,794 -94,217 -220,394 -377,532 -158,137 -339,236 -545,297 -206,61 -422,91 -648,91 -239,0 -462,-30 -669,-91 -207,-61 -387,-160 -539,-297 -152,-137 -272,-314 -360,-532 -87,-217 -131,-482 -131,-794l0 -3909 694 0 0 3909c0,216 24,396 72,539 48,144 116,259 204,345 88,86 193,147 316,183 123,36 261,53 413,53 152,0 291,-18 415,-53 124,-35 231,-96 318,-183 88,-86 156,-201 204,-345 48,-143 73,-323 73,-539l0 -3909 701 0z"/>
    <path class="fil0" d="M285209 63120l-975 0 0 2244 -701 0 0 -5547 1555 0c543,0 955,142 1234,425 280,283 419,698 419,1244 0,343 -75,642 -227,897 -151,255 -365,448 -642,577l1074 2358 0 46 -751 0 -987 -2244zm-975 -598l0 0 846 0c160,0 300,-27 419,-82 119,-55 219,-128 299,-221 80,-93 140,-202 181,-328 41,-126 61,-261 61,-406 0,-160 -18,-305 -53,-436 -35,-131 -91,-243 -168,-337 -76,-94 -175,-166 -295,-217 -121,-51 -266,-76 -436,-76l-853 0 0 2103z"/>
    <polygon class="fil0" points="290333,62800 288371,62800 288371,64766 290657,64766 290657,65364 287674,65364 287674,59817 290619,59817 290619,60419 288371,60419 288371,62202 290333,62202 "/>
   </g>
   <g>
    <g>
     <polygon class="fil0" points="291479,54090 86257,54090 86257,53651 291479,53651 "/>
    </g>
   </g>
  </g>
 </g>
</svg>
